<svg xmlns="http://www.w3.org/2000/svg" width="1200" height="780" viewBox="0 0 1200 780" role="img" aria-labelledby="agione-03-saas-production-title agione-03-saas-production-desc">
<title id="agione-03-saas-production-title">Production Deployment - Public Cloud SaaS</title>
<desc id="agione-03-saas-production-desc">Recommended public-cloud SaaS deployment with load balancing, VPC, scalable business nodes, managed middleware, object storage, and capacity notes.</desc>
<metadata>AGIOne diagrams semantic palette applied: primary #5F4ECF, primary-hover #4A3EB0, primary-subtle #ECE9F9, subtle-border #D8D2F0, terminal #1A1025, text #09090B/#3F3F46/#71717A, surfaces #FFFFFF/#F4F4F5/#FAFAFA, border #E4E4E7/#A1A1AA, blue #EEF1F8/#4A6298, success #EEF5F0/#3A7252, warning #F8F1EC/#8A5E38.</metadata>
<defs>
  <marker id="arrow" viewBox="0 0 10 10" refX="9" refY="5" markerWidth="8" markerHeight="8" orient="auto-start-reverse"><path d="M 0 0 L 10 5 L 0 10 z" fill="#3F3F46"/></marker>
  <marker id="arrowPrimary" viewBox="0 0 10 10" refX="9" refY="5" markerWidth="8" markerHeight="8" orient="auto-start-reverse"><path d="M 0 0 L 10 5 L 0 10 z" fill="#5F4ECF"/></marker>
  <marker id="arrowOrange" viewBox="0 0 10 10" refX="9" refY="5" markerWidth="8" markerHeight="8" orient="auto-start-reverse"><path d="M 0 0 L 10 5 L 0 10 z" fill="#8A5E38"/></marker>
  <style>
    :root{
      --agione-primary:#5F4ECF;
      --agione-primary-hover:#4A3EB0;
      --agione-primary-subtle:#ECE9F9;
      --agione-primary-subtle-border:#D8D2F0;
      --agione-topnav-bg:#1A1025;
      --agione-topnav-accent:#2D2240;
      --agione-page:#FFFFFF;
      --agione-muted:#F4F4F5;
      --agione-cluster:#FAFAFA;
      --agione-text:#09090B;
      --agione-text-secondary:#3F3F46;
      --agione-text-muted:#71717A;
      --agione-border:#E4E4E7;
      --agione-border-strong:#A1A1AA;
      --agione-blue-surface:#EEF1F8;
      --agione-blue-text:#4A6298;
      --agione-success-surface:#EEF5F0;
      --agione-success-text:#3A7252;
      --agione-warning-surface:#F8F1EC;
      --agione-warning-text:#8A5E38;
    }
    svg{background:#FFFFFF;shape-rendering:geometricPrecision;text-rendering:optimizeLegibility}
    text{font-family:"Inter Variable",Inter,"PingFang SC","Microsoft YaHei",Arial,sans-serif;letter-spacing:0}
    line,path,rect,circle,polyline,polygon{vector-effect:non-scaling-stroke}
    .mono{font-family:"SFMono-Regular",Consolas,Menlo,monospace}
  </style>
</defs>
<rect width="1200" height="780" fill="#FFFFFF"/>
<text x="600" y="36" font-size="22" font-weight="700" fill="#09090B" text-anchor="middle"><tspan x="600" dy="0">Production Deployment - Public Cloud SaaS (Recommended)</tspan></text>
<text x="600" y="58" font-size="12" font-weight="400" fill="#71717A" text-anchor="middle"><tspan x="600" dy="0">High Availability - Managed Middleware - Auto-scalable Business Nodes</tspan></text>
<rect x="60" y="100" width="130" height="56" rx="28" fill="#1A1025" stroke="none" stroke-width="0"/>
<circle cx="91" cy="122" r="9" fill="#FFFFFF"/>
<path d="M 77 142 C 84 129, 99 129, 106 142" stroke="#FFFFFF" stroke-width="3" fill="none" stroke-linecap="round"/>
<text x="150" y="135" font-size="13" font-weight="700" fill="#FFFFFF" text-anchor="middle"><tspan x="150" dy="0">Users</tspan></text>
<line x1="190" y1="128" x2="220" y2="128" stroke="#3F3F46" stroke-width="1.8" fill="none"  marker-end="url(#arrow)"/>
<rect x="220" y="100" width="110" height="54" rx="8" fill="#FFFFFF" stroke="#A1A1AA" stroke-width="1.5" />
<rect x="234" y="116" width="24" height="24" rx="6" fill="#71717A" stroke="#71717A" stroke-width="0" />
<text x="246" y="133" font-size="8" font-weight="700" fill="#FFFFFF" text-anchor="middle"><tspan x="246" dy="0">DNS</tspan></text>
<text x="268" y="127" font-size="13" font-weight="700" fill="#09090B" text-anchor="start"><tspan x="268" dy="0">DNS</tspan></text>
<text x="268" y="148" font-size="10" font-weight="400" fill="#3F3F46" text-anchor="start"><tspan x="268" dy="0">DNS Resolution</tspan></text>
<line x1="330" y1="128" x2="400" y2="128" stroke="#3F3F46" stroke-width="1.8" fill="none"  marker-end="url(#arrow)"/>
<rect x="400" y="90" width="400" height="74" rx="8" fill="#EEF1F8" stroke="#4A6298" stroke-width="1.5" />
<rect x="414" y="106" width="24" height="24" rx="6" fill="#4A6298" stroke="#4A6298" stroke-width="0" />
<text x="426" y="123" font-size="8" font-weight="700" fill="#FFFFFF" text-anchor="middle"><tspan x="426" dy="0">LB</tspan></text>
<text x="448" y="117" font-size="13" font-weight="700" fill="#4A6298" text-anchor="start"><tspan x="448" dy="0">ELB - Elastic Load Balancer</tspan></text>
<text x="448" y="138" font-size="10" font-weight="400" fill="#4A6298" text-anchor="start"><tspan x="448" dy="0">Public bandwidth &gt;=100 Mbps - 443 HTTPS / 80 HTTP / 18090</tspan></text>
<rect x="60" y="200" width="1080" height="500" rx="8" fill="#FAFAFA" stroke="#3A7252" stroke-width="1.8" stroke-dasharray="6 5"/>
<rect x="82" y="186" width="230" height="28" rx="14" fill="#3A7252" stroke="none" stroke-width="0"/>
<text x="120" y="205" font-size="13" font-weight="700" fill="#FFFFFF" text-anchor="start"><tspan x="120" dy="0">Public Cloud VPC (Single VPC)</tspan></text>
<path d="M 600 164 C 590 210, 520 232, 330 320" stroke="#5F4ECF" stroke-width="1.6" fill="none"  marker-end="url(#arrowPrimary)"/>
<rect x="100" y="250" width="640" height="200" rx="8" fill="#ECE9F9" stroke="#5F4ECF" stroke-width="1.6" />
<rect x="100" y="250" width="640" height="32" rx="8" fill="#5F4ECF" stroke="#5F4ECF" stroke-width="0" />
<text x="120" y="270" font-size="12" font-weight="700" fill="#FFFFFF" text-anchor="start"><tspan x="120" dy="0">Business Nodes - MANAGEMENT NODES (&gt;=2, Horizontally Scalable)</tspan></text>
<rect x="130" y="306" width="180" height="130" rx="8" fill="#FFFFFF" stroke="#5F4ECF" stroke-width="1.5" />
<rect x="144" y="322" width="24" height="24" rx="6" fill="#5F4ECF" stroke="#5F4ECF" stroke-width="0" />
<text x="156" y="339" font-size="8" font-weight="700" fill="#FFFFFF" text-anchor="middle"><tspan x="156" dy="0">OK</tspan></text>
<text x="178" y="333" font-size="13" font-weight="700" fill="#4A3EB0" text-anchor="start"><tspan x="178" dy="0">Node #1</tspan></text>
<text x="178" y="354" font-size="10" font-weight="400" fill="#3F3F46" text-anchor="start"><tspan x="178" dy="0">AGIOne Core</tspan><tspan x="178" dy="16">CPU: 8 vCPU</tspan><tspan x="178" dy="16">RAM: 16 GiB</tspan><tspan x="178" dy="16">Disk: 100G + 400G</tspan></text>
<rect x="330" y="306" width="180" height="130" rx="8" fill="#FFFFFF" stroke="#5F4ECF" stroke-width="1.5" />
<rect x="344" y="322" width="24" height="24" rx="6" fill="#5F4ECF" stroke="#5F4ECF" stroke-width="0" />
<text x="356" y="339" font-size="8" font-weight="700" fill="#FFFFFF" text-anchor="middle"><tspan x="356" dy="0">OK</tspan></text>
<text x="378" y="333" font-size="13" font-weight="700" fill="#4A3EB0" text-anchor="start"><tspan x="378" dy="0">Node #2</tspan></text>
<text x="378" y="354" font-size="10" font-weight="400" fill="#3F3F46" text-anchor="start"><tspan x="378" dy="0">AGIOne Core</tspan><tspan x="378" dy="16">CPU: 8 vCPU</tspan><tspan x="378" dy="16">RAM: 16 GiB</tspan><tspan x="378" dy="16">Disk: 100G + 400G</tspan></text>
<rect x="530" y="306" width="180" height="130" rx="8" fill="#FFFFFF" stroke="#D8D2F0" stroke-width="1.5" />
<rect x="544" y="322" width="24" height="24" rx="6" fill="#D8D2F0" stroke="#D8D2F0" stroke-width="0" />
<text x="556" y="339" font-size="8" font-weight="700" fill="#FFFFFF" text-anchor="middle"><tspan x="556" dy="0">+</tspan></text>
<text x="578" y="333" font-size="13" font-weight="700" fill="#4A3EB0" text-anchor="start"><tspan x="578" dy="0">Node #N</tspan></text>
<text x="578" y="354" font-size="10" font-weight="400" fill="#3F3F46" text-anchor="start"><tspan x="578" dy="0">Scalable</tspan><tspan x="578" dy="18">Baseline: 2,000 req/min</tspan><tspan x="578" dy="18">Additional: +500 req/min</tspan></text>
<rect x="780" y="250" width="320" height="200" rx="8" fill="#F8F1EC" stroke="#8A5E38" stroke-width="1.6" />
<rect x="780" y="250" width="320" height="32" rx="8" fill="#8A5E38" stroke="#8A5E38" stroke-width="0" />
<text x="800" y="270" font-size="12" font-weight="700" fill="#FFFFFF" text-anchor="start"><tspan x="800" dy="0">Managed Middleware</tspan></text>
<rect x="800" y="300" width="130" height="64" rx="8" fill="#FFFFFF" stroke="#8A5E38" stroke-width="1.5" />
<rect x="814" y="316" width="24" height="24" rx="6" fill="#8A5E38" stroke="#8A5E38" stroke-width="0" />
<text x="826" y="333" font-size="8" font-weight="700" fill="#FFFFFF" text-anchor="middle"><tspan x="826" dy="0"></tspan></text>
<text x="848" y="327" font-size="13" font-weight="700" fill="#8A5E38" text-anchor="start"><tspan x="848" dy="0">RDS</tspan></text>
<text x="848" y="348" font-size="8" font-weight="400" fill="#8A5E38" text-anchor="start"><tspan x="848" dy="0">&gt;=3 Nodes</tspan><tspan x="848" dy="11">4C/16G/100G</tspan></text>
<rect x="950" y="300" width="130" height="64" rx="8" fill="#FFFFFF" stroke="#8A5E38" stroke-width="1.5" />
<rect x="964" y="316" width="24" height="24" rx="6" fill="#8A5E38" stroke="#8A5E38" stroke-width="0" />
<text x="976" y="333" font-size="8" font-weight="700" fill="#FFFFFF" text-anchor="middle"><tspan x="976" dy="0"></tspan></text>
<text x="998" y="327" font-size="13" font-weight="700" fill="#8A5E38" text-anchor="start"><tspan x="998" dy="0">Nacos</tspan></text>
<text x="998" y="348" font-size="8" font-weight="400" fill="#8A5E38" text-anchor="start"><tspan x="998" dy="0">Service Discovery</tspan><tspan x="998" dy="11">Basic</tspan></text>
<rect x="800" y="372" width="130" height="64" rx="8" fill="#FFFFFF" stroke="#8A5E38" stroke-width="1.5" />
<rect x="814" y="388" width="24" height="24" rx="6" fill="#8A5E38" stroke="#8A5E38" stroke-width="0" />
<text x="826" y="405" font-size="8" font-weight="700" fill="#FFFFFF" text-anchor="middle"><tspan x="826" dy="0"></tspan></text>
<text x="848" y="399" font-size="13" font-weight="700" fill="#8A5E38" text-anchor="start"><tspan x="848" dy="0">Redis</tspan></text>
<text x="848" y="420" font-size="8" font-weight="400" fill="#8A5E38" text-anchor="start"><tspan x="848" dy="0">Cache</tspan><tspan x="848" dy="11">Basic</tspan></text>
<rect x="950" y="372" width="130" height="64" rx="8" fill="#FFFFFF" stroke="#8A5E38" stroke-width="1.5" />
<rect x="964" y="388" width="24" height="24" rx="6" fill="#8A5E38" stroke="#8A5E38" stroke-width="0" />
<text x="976" y="405" font-size="8" font-weight="700" fill="#FFFFFF" text-anchor="middle"><tspan x="976" dy="0"></tspan></text>
<text x="998" y="399" font-size="13" font-weight="700" fill="#8A5E38" text-anchor="start"><tspan x="998" dy="0">Kafka</tspan></text>
<text x="998" y="420" font-size="8" font-weight="400" fill="#8A5E38" text-anchor="start"><tspan x="998" dy="0">&gt;=3 Nodes</tspan><tspan x="998" dy="11">&gt;=100G</tspan></text>
<rect x="100" y="480" width="460" height="80" rx="8" fill="#EEF1F8" stroke="#4A6298" stroke-width="1.5" />
<rect x="114" y="496" width="24" height="24" rx="6" fill="#4A6298" stroke="#4A6298" stroke-width="0" />
<text x="126" y="513" font-size="8" font-weight="700" fill="#FFFFFF" text-anchor="middle"><tspan x="126" dy="0">OBJ</tspan></text>
<text x="148" y="507" font-size="13" font-weight="700" fill="#4A6298" text-anchor="start"><tspan x="148" dy="0">Object Storage - OSS / S3 Compatible</tspan></text>
<text x="148" y="528" font-size="10" font-weight="400" fill="#4A6298" text-anchor="start"><tspan x="148" dy="0">AK/SK access - Stores images and static assets</tspan></text>
<rect x="580" y="480" width="520" height="80" rx="8" fill="#F4F4F5" stroke="#A1A1AA" stroke-width="1.5" />
<rect x="594" y="496" width="24" height="24" rx="6" fill="#A1A1AA" stroke="#A1A1AA" stroke-width="0" />
<text x="606" y="513" font-size="8" font-weight="700" fill="#FFFFFF" text-anchor="middle"><tspan x="606" dy="0">STO</tspan></text>
<text x="628" y="507" font-size="13" font-weight="700" fill="#3F3F46" text-anchor="start"><tspan x="628" dy="0">Shared Storage - Optional</tspan></text>
<text x="628" y="528" font-size="10" font-weight="400" fill="#3F3F46" text-anchor="start"><tspan x="628" dy="0">Block storage / shared storage &gt;=1024 GB - shared by management nodes</tspan></text>
<rect x="100" y="610" width="1000" height="60" rx="8" fill="#EEF5F0" stroke="#3A7252" stroke-width="1.4" />
<rect x="116" y="628" width="24" height="24" rx="6" fill="#3A7252" stroke="#3A7252" stroke-width="0" />
<text x="128" y="645" font-size="8" font-weight="700" fill="#FFFFFF" text-anchor="middle"><tspan x="128" dy="0">OK</tspan></text>
<text x="146" y="638" font-size="12" font-weight="700" fill="#3A7252" text-anchor="start"><tspan x="146" dy="0">Capacity Planning</tspan></text>
<text x="146" y="656" font-size="11" font-weight="400" fill="#3A7252" text-anchor="start"><tspan x="146" dy="0">Each business node (8C/16G) ~= 2,000 req/min. Long-connection scenarios add ~= +500 req/min per node.</tspan></text>
<text x="60" y="720" font-size="10" font-weight="700" fill="#3F3F46" text-anchor="start"><tspan x="60" dy="0">Network Requirements:</tspan></text>
<text x="172" y="720" font-size="10" font-weight="400" fill="#3F3F46" text-anchor="start"><tspan x="172" dy="0">All components reside in the same VPC  -  Public ingress &gt;= 100 Mbps  -  Configure domain + HTTPS in production  -  Object storage uses AK/SK</tspan></text>
</svg>
