<svg xmlns="http://www.w3.org/2000/svg" width="1200" height="720" viewBox="0 0 1200 720" role="img" aria-labelledby="agione-04-idc-production-title agione-04-idc-production-desc">
<title id="agione-04-idc-production-title">Production Deployment - Private Cloud or IDC</title>
<desc id="agione-04-idc-production-desc">Private-cloud or IDC production deployment with business nodes, database and middleware nodes, internal networking, and minimum node guidance.</desc>
<metadata>AGIOne diagrams semantic palette applied: primary #5F4ECF, primary-hover #4A3EB0, primary-subtle #ECE9F9, subtle-border #D8D2F0, terminal #1A1025, text #09090B/#3F3F46/#71717A, surfaces #FFFFFF/#F4F4F5/#FAFAFA, border #E4E4E7/#A1A1AA, blue #EEF1F8/#4A6298, success #EEF5F0/#3A7252, warning #F8F1EC/#8A5E38.</metadata>
<defs>
  <marker id="arrow" viewBox="0 0 10 10" refX="9" refY="5" markerWidth="8" markerHeight="8" orient="auto-start-reverse"><path d="M 0 0 L 10 5 L 0 10 z" fill="#3F3F46"/></marker>
  <marker id="arrowPrimary" viewBox="0 0 10 10" refX="9" refY="5" markerWidth="8" markerHeight="8" orient="auto-start-reverse"><path d="M 0 0 L 10 5 L 0 10 z" fill="#5F4ECF"/></marker>
  <marker id="arrowOrange" viewBox="0 0 10 10" refX="9" refY="5" markerWidth="8" markerHeight="8" orient="auto-start-reverse"><path d="M 0 0 L 10 5 L 0 10 z" fill="#8A5E38"/></marker>
  <style>
    :root{
      --agione-primary:#5F4ECF;
      --agione-primary-hover:#4A3EB0;
      --agione-primary-subtle:#ECE9F9;
      --agione-primary-subtle-border:#D8D2F0;
      --agione-topnav-bg:#1A1025;
      --agione-topnav-accent:#2D2240;
      --agione-page:#FFFFFF;
      --agione-muted:#F4F4F5;
      --agione-cluster:#FAFAFA;
      --agione-text:#09090B;
      --agione-text-secondary:#3F3F46;
      --agione-text-muted:#71717A;
      --agione-border:#E4E4E7;
      --agione-border-strong:#A1A1AA;
      --agione-blue-surface:#EEF1F8;
      --agione-blue-text:#4A6298;
      --agione-success-surface:#EEF5F0;
      --agione-success-text:#3A7252;
      --agione-warning-surface:#F8F1EC;
      --agione-warning-text:#8A5E38;
    }
    svg{background:#FFFFFF;shape-rendering:geometricPrecision;text-rendering:optimizeLegibility}
    text{font-family:"Inter Variable",Inter,"PingFang SC","Microsoft YaHei",Arial,sans-serif;letter-spacing:0}
    line,path,rect,circle,polyline,polygon{vector-effect:non-scaling-stroke}
    .mono{font-family:"SFMono-Regular",Consolas,Menlo,monospace}
  </style>
</defs>
<rect width="1200" height="720" fill="#FFFFFF"/>
<text x="600" y="36" font-size="22" font-weight="700" fill="#09090B" text-anchor="middle"><tspan x="600" dy="0">Production Deployment - Private Cloud / IDC</tspan></text>
<text x="600" y="58" font-size="12" font-weight="400" fill="#71717A" text-anchor="middle"><tspan x="600" dy="0">Minimum 4 Nodes - 2 Business Nodes + 2 DB/MW Nodes - Self-Managed Data</tspan></text>
<rect x="60" y="110" width="130" height="56" rx="28" fill="#1A1025" stroke="none" stroke-width="0"/>
<circle cx="91" cy="132" r="9" fill="#FFFFFF"/>
<path d="M 77 152 C 84 139, 99 139, 106 152" stroke="#FFFFFF" stroke-width="3" fill="none" stroke-linecap="round"/>
<text x="150" y="145" font-size="13" font-weight="700" fill="#FFFFFF" text-anchor="middle"><tspan x="150" dy="0">Users</tspan></text>
<line x1="190" y1="138" x2="240" y2="138" stroke="#3F3F46" stroke-width="2" fill="none"  marker-end="url(#arrow)"/>
<rect x="240" y="100" width="320" height="72" rx="8" fill="#EEF1F8" stroke="#4A6298" stroke-width="1.5" />
<rect x="254" y="116" width="24" height="24" rx="6" fill="#4A6298" stroke="#4A6298" stroke-width="0" />
<text x="266" y="133" font-size="8" font-weight="700" fill="#FFFFFF" text-anchor="middle"><tspan x="266" dy="0">LB</tspan></text>
<text x="288" y="127" font-size="13" font-weight="700" fill="#4A6298" text-anchor="start"><tspan x="288" dy="0">Load Balancing</tspan></text>
<text x="288" y="148" font-size="10" font-weight="400" fill="#4A6298" text-anchor="start"><tspan x="288" dy="0">Hardware LB / Nginx + Keepalived - 443/80/18090</tspan></text>
<rect x="60" y="210" width="1080" height="440" rx="8" fill="#F4F4F5" stroke="#3F3F46" stroke-width="1.6" stroke-dasharray="7 5"/>
<rect x="82" y="196" width="240" height="28" rx="14" fill="#3F3F46" stroke="none" stroke-width="0"/>
<text x="120" y="215" font-size="13" font-weight="700" fill="#FFFFFF" text-anchor="start"><tspan x="120" dy="0">Private Cloud / IDC Environment</tspan></text>
<path d="M 400 172 L 260 260" stroke="#3F3F46" stroke-width="1.8" fill="none"  marker-end="url(#arrow)"/>
<path d="M 400 172 L 380 260" stroke="#3F3F46" stroke-width="1.8" fill="none"  marker-end="url(#arrow)"/>
<rect x="100" y="260" width="490" height="170" rx="8" fill="#ECE9F9" stroke="#5F4ECF" stroke-width="1.6" />
<rect x="100" y="260" width="490" height="32" rx="8" fill="#5F4ECF" stroke="#5F4ECF" stroke-width="0" />
<text x="120" y="280" font-size="12" font-weight="700" fill="#FFFFFF" text-anchor="start"><tspan x="120" dy="0">Business Nodes - BUSINESS NODES (&gt;=2)</tspan></text>
<rect x="130" y="316" width="200" height="100" rx="8" fill="#FFFFFF" stroke="#5F4ECF" stroke-width="1.5" />
<rect x="144" y="332" width="24" height="24" rx="6" fill="#5F4ECF" stroke="#5F4ECF" stroke-width="0" />
<text x="156" y="349" font-size="8" font-weight="700" fill="#FFFFFF" text-anchor="middle"><tspan x="156" dy="0">OK</tspan></text>
<text x="178" y="343" font-size="13" font-weight="700" fill="#4A3EB0" text-anchor="start"><tspan x="178" dy="0">Business Node #1</tspan></text>
<text x="178" y="364" font-size="10" font-weight="400" fill="#3F3F46" text-anchor="start"><tspan x="178" dy="0">AGIOne Service</tspan><tspan x="178" dy="18">8 Cores - 16 GB</tspan><tspan x="178" dy="18">Disk &gt;= 200 GB</tspan></text>
<rect x="350" y="316" width="200" height="100" rx="8" fill="#FFFFFF" stroke="#5F4ECF" stroke-width="1.5" />
<rect x="364" y="332" width="24" height="24" rx="6" fill="#5F4ECF" stroke="#5F4ECF" stroke-width="0" />
<text x="376" y="349" font-size="8" font-weight="700" fill="#FFFFFF" text-anchor="middle"><tspan x="376" dy="0">OK</tspan></text>
<text x="398" y="343" font-size="13" font-weight="700" fill="#4A3EB0" text-anchor="start"><tspan x="398" dy="0">Business Node #2</tspan></text>
<text x="398" y="364" font-size="10" font-weight="400" fill="#3F3F46" text-anchor="start"><tspan x="398" dy="0">AGIOne Service</tspan><tspan x="398" dy="18">8 Cores - 16 GB</tspan><tspan x="398" dy="18">Disk &gt;= 200 GB</tspan></text>
<rect x="610" y="260" width="490" height="170" rx="8" fill="#F8F1EC" stroke="#8A5E38" stroke-width="1.6" />
<rect x="610" y="260" width="490" height="32" rx="8" fill="#8A5E38" stroke="#8A5E38" stroke-width="0" />
<text x="630" y="280" font-size="12" font-weight="700" fill="#FFFFFF" text-anchor="start"><tspan x="630" dy="0">Database/Middleware Nodes - DB/MW NODES (&gt;=2)</tspan></text>
<rect x="640" y="316" width="200" height="100" rx="8" fill="#FFFFFF" stroke="#8A5E38" stroke-width="1.5" />
<rect x="654" y="332" width="24" height="24" rx="6" fill="#8A5E38" stroke="#8A5E38" stroke-width="0" />
<text x="666" y="349" font-size="8" font-weight="700" fill="#FFFFFF" text-anchor="middle"><tspan x="666" dy="0">DB</tspan></text>
<text x="688" y="343" font-size="13" font-weight="700" fill="#8A5E38" text-anchor="start"><tspan x="688" dy="0">DB/MW Node #1</tspan></text>
<text x="688" y="364" font-size="10" font-weight="400" fill="#8A5E38" text-anchor="start"><tspan x="688" dy="0">RDS Primary</tspan><tspan x="688" dy="18">8 Cores - 16 GB</tspan><tspan x="688" dy="18">Disk &gt;= 200 GB</tspan></text>
<rect x="860" y="316" width="200" height="100" rx="8" fill="#FFFFFF" stroke="#8A5E38" stroke-width="1.5" />
<rect x="874" y="332" width="24" height="24" rx="6" fill="#8A5E38" stroke="#8A5E38" stroke-width="0" />
<text x="886" y="349" font-size="8" font-weight="700" fill="#FFFFFF" text-anchor="middle"><tspan x="886" dy="0">DB</tspan></text>
<text x="908" y="343" font-size="13" font-weight="700" fill="#8A5E38" text-anchor="start"><tspan x="908" dy="0">DB/MW Node #2</tspan></text>
<text x="908" y="364" font-size="10" font-weight="400" fill="#8A5E38" text-anchor="start"><tspan x="908" dy="0">RDS Replica</tspan><tspan x="908" dy="18">8 Cores - 16 GB</tspan><tspan x="908" dy="18">Disk &gt;= 200 GB</tspan></text>
<text x="530" y="315" font-size="10" font-weight="400" fill="#3F3F46" text-anchor="middle"><tspan x="530" dy="0">Internal Network</tspan></text>
<line x1="550" y1="315" x2="610" y2="315" stroke="#3F3F46" stroke-width="1.5" fill="none"  marker-end="url(#arrow)"/>
<rect x="100" y="460" width="1000" height="130" rx="8" fill="#FFFFFF" stroke="#3F3F46" stroke-width="1.5" />
<rect x="100" y="460" width="1000" height="32" rx="8" fill="#3F3F46" stroke="#3F3F46" stroke-width="0" />
<text x="120" y="481" font-size="12" font-weight="700" fill="#FFFFFF" text-anchor="start"><tspan x="120" dy="0">Deployed Components (on DB/MW Nodes)</tspan></text>
<rect x="140" y="516" width="170" height="60" rx="8" fill="#F4F4F5" stroke="#1A1025" stroke-width="1.5" />
<rect x="154" y="532" width="24" height="24" rx="6" fill="#1A1025" stroke="#1A1025" stroke-width="0" />
<text x="166" y="549" font-size="8" font-weight="700" fill="#FFFFFF" text-anchor="middle"><tspan x="166" dy="0"></tspan></text>
<text x="188" y="543" font-size="13" font-weight="700" fill="#1A1025" text-anchor="start"><tspan x="188" dy="0">RDS</tspan></text>
<text x="188" y="564" font-size="10" font-weight="400" fill="#1A1025" text-anchor="start"><tspan x="188" dy="0">Primary/Replica Mode</tspan></text>
<rect x="330" y="516" width="170" height="60" rx="8" fill="#FFFFFF" stroke="#4A6298" stroke-width="1.5" />
<rect x="344" y="532" width="24" height="24" rx="6" fill="#4A6298" stroke="#4A6298" stroke-width="0" />
<text x="356" y="549" font-size="8" font-weight="700" fill="#FFFFFF" text-anchor="middle"><tspan x="356" dy="0"></tspan></text>
<text x="378" y="543" font-size="13" font-weight="700" fill="#4A6298" text-anchor="start"><tspan x="378" dy="0">Nacos</tspan></text>
<text x="378" y="564" font-size="10" font-weight="400" fill="#4A6298" text-anchor="start"><tspan x="378" dy="0">Service Discovery</tspan></text>
<rect x="520" y="516" width="170" height="60" rx="8" fill="#FFFFFF" stroke="#8A5E38" stroke-width="1.5" />
<rect x="534" y="532" width="24" height="24" rx="6" fill="#8A5E38" stroke="#8A5E38" stroke-width="0" />
<text x="546" y="549" font-size="8" font-weight="700" fill="#FFFFFF" text-anchor="middle"><tspan x="546" dy="0"></tspan></text>
<text x="568" y="543" font-size="13" font-weight="700" fill="#8A5E38" text-anchor="start"><tspan x="568" dy="0">Redis</tspan></text>
<text x="568" y="564" font-size="10" font-weight="400" fill="#8A5E38" text-anchor="start"><tspan x="568" dy="0">Cache</tspan></text>
<rect x="710" y="516" width="170" height="60" rx="8" fill="#FFFFFF" stroke="#5F4ECF" stroke-width="1.5" />
<rect x="724" y="532" width="24" height="24" rx="6" fill="#5F4ECF" stroke="#5F4ECF" stroke-width="0" />
<text x="736" y="549" font-size="8" font-weight="700" fill="#FFFFFF" text-anchor="middle"><tspan x="736" dy="0"></tspan></text>
<text x="758" y="543" font-size="13" font-weight="700" fill="#5F4ECF" text-anchor="start"><tspan x="758" dy="0">Kafka</tspan></text>
<text x="758" y="564" font-size="10" font-weight="400" fill="#5F4ECF" text-anchor="start"><tspan x="758" dy="0">Messaging</tspan></text>
<rect x="900" y="516" width="170" height="60" rx="8" fill="#FFFFFF" stroke="#3A7252" stroke-width="1.5" />
<rect x="914" y="532" width="24" height="24" rx="6" fill="#3A7252" stroke="#3A7252" stroke-width="0" />
<text x="926" y="549" font-size="8" font-weight="700" fill="#FFFFFF" text-anchor="middle"><tspan x="926" dy="0"></tspan></text>
<text x="948" y="543" font-size="13" font-weight="700" fill="#3A7252" text-anchor="start"><tspan x="948" dy="0">MinIO</tspan></text>
<text x="948" y="564" font-size="10" font-weight="400" fill="#3A7252" text-anchor="start"><tspan x="948" dy="0">Object Storage</tspan></text>
<rect x="60" y="670" width="1080" height="36" rx="6" fill="#EEF1F8" stroke="#4A6298" stroke-width="1.3" />
<text x="80" y="692" font-size="10" font-weight="700" fill="#4A6298" text-anchor="start"><tspan x="80" dy="0">Minimum Node Count:</tspan></text>
<text x="194" y="692" font-size="10" font-weight="400" fill="#4A6298" text-anchor="start"><tspan x="194" dy="0">4 nodes = 2 business nodes + 2 DB/MW nodes - Database uses primary/replica mode - Split components as scale grows</tspan></text>
</svg>
