<svg xmlns="http://www.w3.org/2000/svg" width="1200" height="720" viewBox="0 0 1200 720" role="img" aria-labelledby="agione-05-compute-nodes-title agione-05-compute-nodes-desc">
<title id="agione-05-compute-nodes-title">Compute Node Onboarding Architecture</title>
<desc id="agione-05-compute-nodes-desc">Compute pool onboarding architecture covering management plane, Kubernetes control planes, registries, GPU/NPU workers, scale rules, and required ports.</desc>
<metadata>AGIOne diagrams semantic palette applied: primary #5F4ECF, primary-hover #4A3EB0, primary-subtle #ECE9F9, subtle-border #D8D2F0, terminal #1A1025, text #09090B/#3F3F46/#71717A, surfaces #FFFFFF/#F4F4F5/#FAFAFA, border #E4E4E7/#A1A1AA, blue #EEF1F8/#4A6298, success #EEF5F0/#3A7252, warning #F8F1EC/#8A5E38.</metadata>
<defs>
  <marker id="arrow" viewBox="0 0 10 10" refX="9" refY="5" markerWidth="8" markerHeight="8" orient="auto-start-reverse"><path d="M 0 0 L 10 5 L 0 10 z" fill="#3F3F46"/></marker>
  <marker id="arrowPrimary" viewBox="0 0 10 10" refX="9" refY="5" markerWidth="8" markerHeight="8" orient="auto-start-reverse"><path d="M 0 0 L 10 5 L 0 10 z" fill="#5F4ECF"/></marker>
  <marker id="arrowOrange" viewBox="0 0 10 10" refX="9" refY="5" markerWidth="8" markerHeight="8" orient="auto-start-reverse"><path d="M 0 0 L 10 5 L 0 10 z" fill="#8A5E38"/></marker>
  <style>
    :root{
      --agione-primary:#5F4ECF;
      --agione-primary-hover:#4A3EB0;
      --agione-primary-subtle:#ECE9F9;
      --agione-primary-subtle-border:#D8D2F0;
      --agione-topnav-bg:#1A1025;
      --agione-topnav-accent:#2D2240;
      --agione-page:#FFFFFF;
      --agione-muted:#F4F4F5;
      --agione-cluster:#FAFAFA;
      --agione-text:#09090B;
      --agione-text-secondary:#3F3F46;
      --agione-text-muted:#71717A;
      --agione-border:#E4E4E7;
      --agione-border-strong:#A1A1AA;
      --agione-blue-surface:#EEF1F8;
      --agione-blue-text:#4A6298;
      --agione-success-surface:#EEF5F0;
      --agione-success-text:#3A7252;
      --agione-warning-surface:#F8F1EC;
      --agione-warning-text:#8A5E38;
    }
    svg{background:#FFFFFF;shape-rendering:geometricPrecision;text-rendering:optimizeLegibility}
    text{font-family:"Inter Variable",Inter,"PingFang SC","Microsoft YaHei",Arial,sans-serif;letter-spacing:0}
    line,path,rect,circle,polyline,polygon{vector-effect:non-scaling-stroke}
    .mono{font-family:"SFMono-Regular",Consolas,Menlo,monospace}
  </style>
</defs>
<rect width="1200" height="720" fill="#FFFFFF"/>
<text x="600" y="36" font-size="22" font-weight="700" fill="#09090B" text-anchor="middle"><tspan x="600" dy="0">Compute Node Onboarding Architecture</tspan></text>
<text x="600" y="58" font-size="12" font-weight="400" fill="#71717A" text-anchor="middle"><tspan x="600" dy="0">Compute Pool Management - Kubernetes - Near-Node Images - GPU/NPU Scheduling</tspan></text>
<rect x="380" y="90" width="440" height="75" rx="8" fill="#ECE9F9" stroke="#5F4ECF" stroke-width="1.5" />
<rect x="394" y="106" width="24" height="24" rx="6" fill="#5F4ECF" stroke="#5F4ECF" stroke-width="0" />
<text x="406" y="123" font-size="8" font-weight="700" fill="#FFFFFF" text-anchor="middle"><tspan x="406" dy="0">OK</tspan></text>
<text x="428" y="117" font-size="13" font-weight="700" fill="#4A3EB0" text-anchor="start"><tspan x="428" dy="0">AGIOne Management Plane</tspan></text>
<text x="428" y="138" font-size="10" font-weight="400" fill="#4A3EB0" text-anchor="start"><tspan x="428" dy="0">Management Plane - Scheduling Entry - Monitoring Aggregation</tspan></text>
<rect x="380" y="184" width="440" height="40" rx="5" fill="#FFFFFF" stroke="#D8D2F0" stroke-width="1.3" stroke-dasharray="4 4"/>
<text x="600" y="201" font-size="10" font-weight="700" fill="#4A3EB0" text-anchor="middle"><tspan x="600" dy="0">Manage compute clusters through these ports:</tspan></text>
<text x="600" y="216" font-size="9" font-weight="400" fill="#4A3EB0" text-anchor="middle"><tspan x="600" dy="0">6443 K8s API     32761 Monitoring     32762 Model/IDE     32763 Reserved     32764/65</tspan></text>
<path d="M 460 224 C 440 250, 365 262, 280 280" stroke="#5F4ECF" stroke-width="1.6" fill="none"  marker-end="url(#arrowPrimary)"/>
<path d="M 740 224 C 760 250, 845 262, 920 280" stroke="#5F4ECF" stroke-width="1.6" fill="none"  marker-end="url(#arrowPrimary)"/>
<rect x="40" y="280" width="540" height="380" rx="8" fill="#F8F1EC" stroke="#8A5E38" stroke-width="1.5" stroke-dasharray="6 4"/>
<rect x="60" y="267" width="190" height="28" rx="14" fill="#8A5E38" stroke="none" stroke-width="0"/>
<text x="75" y="286" font-size="12" font-weight="700" fill="#FFFFFF" text-anchor="start"><tspan x="75" dy="0">Compute Pool A - Nodes &lt; 3</tspan></text>
<text x="70" y="320" font-size="11" font-weight="700" fill="#8A5E38" text-anchor="start"><tspan x="70" dy="0">Kubernetes Control Plane - Single Node</tspan></text>
<rect x="70" y="334" width="160" height="80" rx="8" fill="#FFFFFF" stroke="#8A5E38" stroke-width="1.5" />
<rect x="84" y="350" width="24" height="24" rx="6" fill="#8A5E38" stroke="#8A5E38" stroke-width="0" />
<text x="96" y="367" font-size="8" font-weight="700" fill="#FFFFFF" text-anchor="middle"><tspan x="96" dy="0">K8s</tspan></text>
<text x="118" y="361" font-size="13" font-weight="700" fill="#8A5E38" text-anchor="start"><tspan x="118" dy="0">Master Node</tspan></text>
<text x="118" y="382" font-size="10" font-weight="400" fill="#8A5E38" text-anchor="start"><tspan x="118" dy="0">API - Scheduler - etcd</tspan><tspan x="118" dy="15">Only 1 node</tspan></text>
<rect x="250" y="334" width="160" height="80" rx="8" fill="#FFFFFF" stroke="#8A5E38" stroke-width="1.5" />
<rect x="264" y="350" width="24" height="24" rx="6" fill="#8A5E38" stroke="#8A5E38" stroke-width="0" />
<text x="276" y="367" font-size="8" font-weight="700" fill="#FFFFFF" text-anchor="middle"><tspan x="276" dy="0">IMG</tspan></text>
<text x="298" y="361" font-size="13" font-weight="700" fill="#8A5E38" text-anchor="start"><tspan x="298" dy="0">Registry</tspan></text>
<text x="298" y="382" font-size="10" font-weight="400" fill="#8A5E38" text-anchor="start"><tspan x="298" dy="0">Image Distribution</tspan><tspan x="298" dy="15">Reuses compute resources</tspan></text>
<rect x="430" y="334" width="120" height="80" rx="8" fill="#FFFFFF" stroke="#8A5E38" stroke-width="1.5" />
<text x="446" y="361" font-size="13" font-weight="700" fill="#8A5E38" text-anchor="start"><tspan x="446" dy="0">Supporting Plugins</tspan></text>
<text x="446" y="382" font-size="10" font-weight="400" fill="#8A5E38" text-anchor="start"><tspan x="446" dy="0">Scheduling</tspan><tspan x="446" dy="15">Monitoring</tspan><tspan x="446" dy="15">Logging</tspan></text>
<text x="70" y="450" font-size="11" font-weight="700" fill="#8A5E38" text-anchor="start"><tspan x="70" dy="0">Compute Worker Nodes - GPU / NPU</tspan></text>
<rect x="70" y="464" width="120" height="125" rx="8" fill="#FFFFFF" stroke="#8A5E38" stroke-width="1.5" />
<rect x="84" y="480" width="24" height="24" rx="6" fill="#8A5E38" stroke="#8A5E38" stroke-width="0" />
<text x="96" y="497" font-size="8" font-weight="700" fill="#FFFFFF" text-anchor="middle"><tspan x="96" dy="0">GPU</tspan></text>
<text x="118" y="491" font-size="13" font-weight="700" fill="#8A5E38" text-anchor="start"><tspan x="118" dy="0">Worker #1</tspan></text>
<text x="118" y="512" font-size="9" font-weight="400" fill="#3F3F46" text-anchor="start"><tspan x="118" dy="0">GPU Cards xN</tspan><tspan x="118" dy="17">Drivers + RT</tspan><tspan x="118" dy="17">device plugin</tspan><tspan x="118" dy="17">Training / Inference</tspan></text>
<rect x="210" y="464" width="120" height="125" rx="8" fill="#FFFFFF" stroke="#8A5E38" stroke-width="1.5" />
<rect x="224" y="480" width="24" height="24" rx="6" fill="#8A5E38" stroke="#8A5E38" stroke-width="0" />
<text x="236" y="497" font-size="8" font-weight="700" fill="#FFFFFF" text-anchor="middle"><tspan x="236" dy="0">NPU</tspan></text>
<text x="258" y="491" font-size="13" font-weight="700" fill="#8A5E38" text-anchor="start"><tspan x="258" dy="0">Worker #2</tspan></text>
<text x="258" y="512" font-size="9" font-weight="400" fill="#3F3F46" text-anchor="start"><tspan x="258" dy="0">NPU Cards xN</tspan><tspan x="258" dy="17">Drivers + RT</tspan><tspan x="258" dy="17">device plugin</tspan><tspan x="258" dy="17">Inference / IDE</tspan></text>
<rect x="350" y="464" width="200" height="125" rx="8" fill="#FFFFFF" stroke="#8A5E38" stroke-width="1.1" stroke-dasharray="5 4"/>
<text x="450" y="492" font-size="11" font-weight="700" fill="#8A5E38" text-anchor="middle"><tspan x="450" dy="0">Scale Rules</tspan></text>
<text x="370" y="518" font-size="10" font-weight="400" fill="#3F3F46" text-anchor="start"><tspan x="370" dy="0">Total Nodes &lt; 3 -&gt; 1 control plane</tspan><tspan x="370" dy="18">Total Nodes &gt;= 3 -&gt; 3 control planes</tspan><tspan x="370" dy="18">HA etcd with multiple replicas</tspan></text>
<path d="M 230 414 C 230 438, 130 438, 130 464" stroke="#8A5E38" stroke-width="1.2" fill="none" stroke-dasharray="3 3" />
<path d="M 330 414 C 330 438, 270 438, 270 464" stroke="#8A5E38" stroke-width="1.2" fill="none" stroke-dasharray="3 3" />
<rect x="620" y="280" width="540" height="380" rx="8" fill="#F8F1EC" stroke="#8A5E38" stroke-width="1.5" stroke-dasharray="6 4"/>
<rect x="640" y="267" width="200" height="28" rx="14" fill="#8A5E38" stroke="none" stroke-width="0"/>
<text x="655" y="286" font-size="12" font-weight="700" fill="#FFFFFF" text-anchor="start"><tspan x="655" dy="0">Compute Pool B - Nodes &gt;= 3</tspan></text>
<text x="650" y="320" font-size="11" font-weight="700" fill="#8A5E38" text-anchor="start"><tspan x="650" dy="0">Kubernetes Control Plane - 3-Node HA</tspan></text>
<rect x="650" y="334" width="320" height="80" rx="8" fill="#FFFFFF" stroke="#8A5E38" stroke-width="1.5" />
<rect x="664" y="350" width="24" height="24" rx="6" fill="#8A5E38" stroke="#8A5E38" stroke-width="0" />
<text x="676" y="367" font-size="8" font-weight="700" fill="#FFFFFF" text-anchor="middle"><tspan x="676" dy="0">K8s</tspan></text>
<text x="698" y="361" font-size="13" font-weight="700" fill="#8A5E38" text-anchor="start"><tspan x="698" dy="0">Master 1 / Master 2 / Master 3</tspan></text>
<text x="698" y="382" font-size="10" font-weight="400" fill="#8A5E38" text-anchor="start"><tspan x="698" dy="0">API / etcd - highly available control plane</tspan></text>
<rect x="1000" y="334" width="130" height="80" rx="8" fill="#FFFFFF" stroke="#8A5E38" stroke-width="1.5" />
<rect x="1014" y="350" width="24" height="24" rx="6" fill="#8A5E38" stroke="#8A5E38" stroke-width="0" />
<text x="1026" y="367" font-size="8" font-weight="700" fill="#FFFFFF" text-anchor="middle"><tspan x="1026" dy="0">IMG</tspan></text>
<text x="1048" y="361" font-size="13" font-weight="700" fill="#8A5E38" text-anchor="start"><tspan x="1048" dy="0">Registry</tspan></text>
<text x="1048" y="382" font-size="10" font-weight="400" fill="#8A5E38" text-anchor="start"><tspan x="1048" dy="0">Dedicated deployment</tspan><tspan x="1048" dy="15">Independent per region</tspan></text>
<text x="650" y="450" font-size="11" font-weight="700" fill="#8A5E38" text-anchor="start"><tspan x="650" dy="0">Compute Worker Nodes - Workers</tspan></text>
<rect x="650" y="464" width="100" height="125" rx="8" fill="#FFFFFF" stroke="#8A5E38" stroke-width="1.5" />
<rect x="664" y="480" width="24" height="24" rx="6" fill="#8A5E38" stroke="#8A5E38" stroke-width="0" />
<text x="676" y="497" font-size="8" font-weight="700" fill="#FFFFFF" text-anchor="middle"><tspan x="676" dy="0">GPU</tspan></text>
<text x="698" y="491" font-size="13" font-weight="700" fill="#8A5E38" text-anchor="start"><tspan x="698" dy="0">Worker 1</tspan></text>
<text x="698" y="512" font-size="9" font-weight="400" fill="#3F3F46" text-anchor="start"><tspan x="698" dy="0">GPU xN</tspan><tspan x="698" dy="18">Drivers + RT</tspan><tspan x="698" dy="18">Training Jobs</tspan></text>
<rect x="770" y="464" width="100" height="125" rx="8" fill="#FFFFFF" stroke="#8A5E38" stroke-width="1.5" />
<rect x="784" y="480" width="24" height="24" rx="6" fill="#8A5E38" stroke="#8A5E38" stroke-width="0" />
<text x="796" y="497" font-size="8" font-weight="700" fill="#FFFFFF" text-anchor="middle"><tspan x="796" dy="0">GPU</tspan></text>
<text x="818" y="491" font-size="13" font-weight="700" fill="#8A5E38" text-anchor="start"><tspan x="818" dy="0">Worker 2</tspan></text>
<text x="818" y="512" font-size="9" font-weight="400" fill="#3F3F46" text-anchor="start"><tspan x="818" dy="0">GPU xN</tspan><tspan x="818" dy="18">Drivers + RT</tspan><tspan x="818" dy="18">Inference Jobs</tspan></text>
<rect x="890" y="464" width="100" height="125" rx="8" fill="#FFFFFF" stroke="#8A5E38" stroke-width="1.5" />
<rect x="904" y="480" width="24" height="24" rx="6" fill="#8A5E38" stroke="#8A5E38" stroke-width="0" />
<text x="916" y="497" font-size="8" font-weight="700" fill="#FFFFFF" text-anchor="middle"><tspan x="916" dy="0">NPU</tspan></text>
<text x="938" y="491" font-size="13" font-weight="700" fill="#8A5E38" text-anchor="start"><tspan x="938" dy="0">Worker 3</tspan></text>
<text x="938" y="512" font-size="9" font-weight="400" fill="#3F3F46" text-anchor="start"><tspan x="938" dy="0">NPU xN</tspan><tspan x="938" dy="18">Drivers + RT</tspan><tspan x="938" dy="18">IDE / Long Jobs</tspan></text>
<rect x="1010" y="464" width="130" height="125" rx="8" fill="#FFFFFF" stroke="#8A5E38" stroke-width="1.1" stroke-dasharray="5 4"/>
<text x="1075" y="492" font-size="11" font-weight="700" fill="#8A5E38" text-anchor="middle"><tspan x="1075" dy="0">Scale Capabilities</tspan></text>
<text x="1025" y="518" font-size="10" font-weight="400" fill="#3F3F46" text-anchor="start"><tspan x="1025" dy="0">- HA control plane</tspan><tspan x="1025" dy="17">- Multiple etcd</tspan><tspan x="1025" dy="17">- Scalable workers</tspan><tspan x="1025" dy="17">- Near-node pulls</tspan></text>
<path d="M 800 414 C 780 438, 700 438, 700 464" stroke="#8A5E38" stroke-width="1.2" fill="none" stroke-dasharray="3 3" />
<path d="M 810 414 C 810 438, 820 438, 820 464" stroke="#8A5E38" stroke-width="1.2" fill="none" stroke-dasharray="3 3" />
<path d="M 830 414 C 860 438, 940 438, 940 464" stroke="#8A5E38" stroke-width="1.2" fill="none" stroke-dasharray="3 3" />
<text x="40" y="686" font-size="10" font-weight="700" fill="#3F3F46" text-anchor="start"><tspan x="40" dy="0">Notes:</tspan></text>
<text x="88" y="686" font-size="10" font-weight="400" fill="#3F3F46" text-anchor="start"><tspan x="88" dy="0">Each regional compute pool is deployed independently. The management plane controls clusters through ports 6443 and 32761-32765.</tspan></text>
</svg>
