<svg xmlns="http://www.w3.org/2000/svg" width="2960" height="1080" viewBox="0 0 2960 1080" role="img" aria-labelledby="title desc">
  <title id="title">AGIOne Core Capabilities</title>
  <desc id="desc">AGIOne styled SVG recreation preserving the original technical diagram structure.</desc>
  <defs>
    <marker id="arrow-dark" viewBox="0 0 14 14" markerWidth="14" markerHeight="14" refX="13" refY="7" orient="auto" markerUnits="userSpaceOnUse">
      <path d="M0,0 L14,7 L0,14 Z" fill="#3F3F46"/>
    </marker>
    <marker id="arrow-primary" viewBox="0 0 14 14" markerWidth="14" markerHeight="14" refX="13" refY="7" orient="auto" markerUnits="userSpaceOnUse">
      <path d="M0,0 L14,7 L0,14 Z" fill="#5F4ECF"/>
    </marker>
    <marker id="arrow-green" viewBox="0 0 14 14" markerWidth="14" markerHeight="14" refX="13" refY="7" orient="auto" markerUnits="userSpaceOnUse">
      <path d="M0,0 L14,7 L0,14 Z" fill="#3A7252"/>
    </marker>
    <marker id="arrow-orange" viewBox="0 0 14 14" markerWidth="14" markerHeight="14" refX="13" refY="7" orient="auto" markerUnits="userSpaceOnUse">
      <path d="M0,0 L14,7 L0,14 Z" fill="#8A5E38"/>
    </marker>
    <marker id="arrow-purple" viewBox="0 0 14 14" markerWidth="14" markerHeight="14" refX="13" refY="7" orient="auto" markerUnits="userSpaceOnUse">
      <path d="M0,0 L14,7 L0,14 Z" fill="#6A4E9A"/>
    </marker>
    <marker id="arrow-blue" viewBox="0 0 14 14" markerWidth="14" markerHeight="14" refX="13" refY="7" orient="auto" markerUnits="userSpaceOnUse">
      <path d="M0,0 L14,7 L0,14 Z" fill="#4A6298"/>
    </marker>
    <style>
      .agione-text { font-family: Inter, "PingFang SC", "Microsoft YaHei", Arial, sans-serif; letter-spacing: 0; }
      .node { stroke-width: 2.4; }
      .section { stroke-width: 2.4; }
      .flow { fill: none; stroke-linecap: round; stroke-linejoin: round; }
      .small { font-size: 16px; }
      .tiny { font-size: 13px; }
    </style>
  </defs>
  <rect width="100%" height="100%" fill="#FFFFFF"/>
  <rect x="80" y="80" width="910" height="140" rx="26" ry="26" fill="#F4F4F5" stroke="#A1A1AA" stroke-width="2.4" class="node" />
  <text x="535.0" y="167.68" class="agione-text" font-size="52" font-weight="700" fill="#3F3F46" text-anchor="middle">
    <tspan x="535.0" dy="0">AGIOne Six Core Capabilities</tspan>
  </text>
  <rect x="120" y="360" width="360" height="190" rx="20" ry="20" fill="#EEF1F8" stroke="#4A6298" stroke-width="2.4" class="node" />
  <text x="300.0" y="408.2" class="agione-text" font-size="30" font-weight="600" fill="#4A6298" text-anchor="middle">
    <tspan x="300.0" dy="0">(1) Compute</tspan>
    <tspan x="300.0" dy="38">Governance</tspan>
    <tspan x="300.0" dy="38"></tspan>
    <tspan x="300.0" dy="38">Heterogeneous chips</tspan>
  </text>
  <path d="M300 550 C470 620 1240 710 1400 765" class="flow" stroke="#4A6298" stroke-width="3" stroke-dasharray="8 12" marker-end="url(#arrow-dark)" opacity="0.85" />
  <rect x="545" y="360" width="360" height="190" rx="20" ry="20" fill="#EEF5F0" stroke="#3A7252" stroke-width="2.4" class="node" />
  <text x="725.0" y="408.2" class="agione-text" font-size="30" font-weight="600" fill="#3A7252" text-anchor="middle">
    <tspan x="725.0" dy="0">(2) Model</tspan>
    <tspan x="725.0" dy="38">Templates</tspan>
    <tspan x="725.0" dy="38"></tspan>
    <tspan x="725.0" dy="38">Best practices</tspan>
  </text>
  <path d="M725 550 C895 620 1240 710 1400 765" class="flow" stroke="#4A6298" stroke-width="3" stroke-dasharray="8 12" marker-end="url(#arrow-dark)" opacity="0.85" />
  <rect x="970" y="360" width="360" height="190" rx="20" ry="20" fill="#F8F1EC" stroke="#8A5E38" stroke-width="2.4" class="node" />
  <text x="1150.0" y="408.2" class="agione-text" font-size="30" font-weight="600" fill="#8A5E38" text-anchor="middle">
    <tspan x="1150.0" dy="0">(3) Rapid</tspan>
    <tspan x="1150.0" dy="38">Deployment</tspan>
    <tspan x="1150.0" dy="38"></tspan>
    <tspan x="1150.0" dy="38">Abstract complexity</tspan>
  </text>
  <path d="M1150 550 C1320 620 1240 710 1400 765" class="flow" stroke="#4A6298" stroke-width="3" stroke-dasharray="8 12" marker-end="url(#arrow-dark)" opacity="0.85" />
  <rect x="1395" y="360" width="360" height="190" rx="20" ry="20" fill="#F2EEF8" stroke="#6A4E9A" stroke-width="2.4" class="node" />
  <text x="1575.0" y="408.2" class="agione-text" font-size="30" font-weight="600" fill="#6A4E9A" text-anchor="middle">
    <tspan x="1575.0" dy="0">(4) Model</tspan>
    <tspan x="1575.0" dy="38">Publishing</tspan>
    <tspan x="1575.0" dy="38"></tspan>
    <tspan x="1575.0" dy="38">Service exposure</tspan>
  </text>
  <path d="M1575 550 C1745 620 1240 710 1400 765" class="flow" stroke="#4A6298" stroke-width="3" stroke-dasharray="8 12" marker-end="url(#arrow-dark)" opacity="0.85" />
  <rect x="1820" y="360" width="360" height="190" rx="20" ry="20" fill="#ECE9F9" stroke="#4A3EB0" stroke-width="2.4" class="node" />
  <text x="2000.0" y="408.2" class="agione-text" font-size="30" font-weight="600" fill="#4A3EB0" text-anchor="middle">
    <tspan x="2000.0" dy="0">(5) Model</tspan>
    <tspan x="2000.0" dy="38">Aggregation</tspan>
    <tspan x="2000.0" dy="38"></tspan>
    <tspan x="2000.0" dy="38">HA + UX</tspan>
  </text>
  <path d="M2000 550 C2170 620 1240 710 1400 765" class="flow" stroke="#4A6298" stroke-width="3" stroke-dasharray="8 12" marker-end="url(#arrow-dark)" opacity="0.85" />
  <rect x="2245" y="360" width="360" height="190" rx="20" ry="20" fill="#F8F1EC" stroke="#8A5E38" stroke-width="2.4" class="node" />
  <text x="2425.0" y="408.2" class="agione-text" font-size="30" font-weight="600" fill="#8A5E38" text-anchor="middle">
    <tspan x="2425.0" dy="0">(6) Metering</tspan>
    <tspan x="2425.0" dy="38">&amp; Billing</tspan>
    <tspan x="2425.0" dy="38"></tspan>
    <tspan x="2425.0" dy="38">Quota-based ops</tspan>
  </text>
  <path d="M2425 550 C2595 620 1240 710 1400 765" class="flow" stroke="#4A6298" stroke-width="3" stroke-dasharray="8 12" marker-end="url(#arrow-dark)" opacity="0.85" />
  <rect x="880" y="765" width="1320" height="125" rx="24" ry="24" fill="#1A1025" stroke="#2D2240" stroke-width="2.4" class="node" />
  <text x="1540.0" y="841.1" class="agione-text" font-size="40" font-weight="700" fill="#FFFFFF" text-anchor="middle">
    <tspan x="1540.0" dy="0">(7) Invocation Observability (End-to-End)</tspan>
  </text>
</svg>
