<svg xmlns="http://www.w3.org/2000/svg" width="1600" height="680" viewBox="0 0 1600 680" role="img" aria-labelledby="title desc">
  <title id="title">AGIOne 核心能力全景预览</title>
  <desc id="desc">六段业务闭环、调用可观测和设置与访问控制，共八项能力。</desc>
  <defs>
    <marker id="arrow" viewBox="0 0 10 10" refX="8" refY="5" markerWidth="7" markerHeight="7" orient="auto-start-reverse">
      <path d="M 0 0 L 10 5 L 0 10 z" fill="#667085"/>
    </marker>
    <style>
      .title { font: 700 38px Arial, "Microsoft YaHei", sans-serif; fill: #182230; }
      .subtitle { font: 400 21px Arial, "Microsoft YaHei", sans-serif; fill: #475467; }
      .stage { font: 700 24px Arial, "Microsoft YaHei", sans-serif; fill: #182230; }
      .desc { font: 400 17px Arial, "Microsoft YaHei", sans-serif; fill: #475467; }
      .num { font: 700 20px Arial, "Microsoft YaHei", sans-serif; fill: #ffffff; text-anchor: middle; dominant-baseline: central; }
      .band-title { font: 700 25px Arial, "Microsoft YaHei", sans-serif; fill: #20304a; }
      .band-desc { font: 400 18px Arial, "Microsoft YaHei", sans-serif; fill: #475467; }
      .label { font: 700 16px Arial, "Microsoft YaHei", sans-serif; fill: #344054; letter-spacing: 0; }
    </style>
  </defs>

  <rect width="1600" height="680" fill="#ffffff"/>

  <text x="72" y="66" class="title">AGIOne 核心能力全景</text>
  <text x="72" y="104" class="subtitle">围绕“算力 → 模型 → 服务 → 运营”形成端到端业务闭环</text>
  <text x="1528" y="84" class="label" text-anchor="end">6 段业务链路 · 2 项横向能力</text>

  <line x1="286" y1="245" x2="321" y2="245" stroke="#667085" stroke-width="3" marker-end="url(#arrow)"/>
  <line x1="534" y1="245" x2="569" y2="245" stroke="#667085" stroke-width="3" marker-end="url(#arrow)"/>
  <line x1="782" y1="245" x2="817" y2="245" stroke="#667085" stroke-width="3" marker-end="url(#arrow)"/>
  <line x1="1030" y1="245" x2="1065" y2="245" stroke="#667085" stroke-width="3" marker-end="url(#arrow)"/>
  <line x1="1278" y1="245" x2="1313" y2="245" stroke="#667085" stroke-width="3" marker-end="url(#arrow)"/>

  <g transform="translate(72 150)">
    <rect width="214" height="190" rx="8" fill="#edf3ff" stroke="#4b6fae" stroke-width="2"/>
    <circle cx="32" cy="32" r="20" fill="#4b6fae"/>
    <text x="32" y="32" class="num">1</text>
    <text x="24" y="82" class="stage">算力纳管</text>
    <text x="24" y="116" class="desc">地域 · 集群 · 节点</text>
    <text x="24" y="145" class="desc">加速卡 · 规格 · 配额</text>
    <text x="24" y="174" class="desc">异构资源统一池化</text>
  </g>

  <g transform="translate(320 150)">
    <rect width="214" height="190" rx="8" fill="#eaf7f0" stroke="#2f8f64" stroke-width="2"/>
    <circle cx="32" cy="32" r="20" fill="#2f8f64"/>
    <text x="32" y="32" class="num">2</text>
    <text x="24" y="82" class="stage">模型模板</text>
    <text x="24" y="116" class="desc">模型配置 · 显存配置</text>
    <text x="24" y="145" class="desc">框架 · 推理模板</text>
    <text x="24" y="174" class="desc">沉淀可复用部署经验</text>
  </g>

  <g transform="translate(568 150)">
    <rect width="214" height="190" rx="8" fill="#fff2e8" stroke="#c56a2d" stroke-width="2"/>
    <circle cx="32" cy="32" r="20" fill="#c56a2d"/>
    <text x="32" y="32" class="num">3</text>
    <text x="24" y="82" class="stage">快速部署</text>
    <text x="24" y="116" class="desc">选模型 · 选规格</text>
    <text x="24" y="145" class="desc">提交部署 · 查看状态</text>
    <text x="24" y="174" class="desc">产品化部署流程</text>
  </g>

  <g transform="translate(816 150)">
    <rect width="214" height="190" rx="8" fill="#f1eeff" stroke="#7256c8" stroke-width="2"/>
    <circle cx="32" cy="32" r="20" fill="#7256c8"/>
    <text x="32" y="32" class="num">4</text>
    <text x="24" y="82" class="stage">模型发布</text>
    <text x="24" y="116" class="desc">发布 · 审核 · 可见范围</text>
    <text x="24" y="145" class="desc">定价 · 限流 · 调用</text>
    <text x="24" y="174" class="desc">模型能力服务化</text>
  </g>

  <g transform="translate(1064 150)">
    <rect width="214" height="190" rx="8" fill="#e9f7f6" stroke="#238c83" stroke-width="2"/>
    <circle cx="32" cy="32" r="20" fill="#238c83"/>
    <text x="32" y="32" class="num">5</text>
    <text x="24" y="82" class="stage">模型聚合</text>
    <text x="24" y="116" class="desc">多成员模型编排</text>
    <text x="24" y="145" class="desc">统一入口 · 路由策略</text>
    <text x="24" y="174" class="desc">兼顾成本与可用性</text>
  </g>

  <g transform="translate(1312 150)">
    <rect width="216" height="190" rx="8" fill="#fff8e1" stroke="#b58a16" stroke-width="2"/>
    <circle cx="32" cy="32" r="20" fill="#b58a16"/>
    <text x="32" y="32" class="num">6</text>
    <text x="24" y="77" class="stage">计量与账务</text>
    <text x="24" y="108" class="stage">财务运营</text>
    <text x="24" y="142" class="desc">计量 · 账单 · 结算</text>
    <text x="24" y="171" class="desc">财务 · License 运营</text>
  </g>

  <g stroke="#b8c2d0" stroke-width="2" stroke-dasharray="5 8">
    <line x1="179" y1="340" x2="179" y2="382"/>
    <line x1="427" y1="340" x2="427" y2="382"/>
    <line x1="675" y1="340" x2="675" y2="382"/>
    <line x1="923" y1="340" x2="923" y2="382"/>
    <line x1="1171" y1="340" x2="1171" y2="382"/>
    <line x1="1420" y1="340" x2="1420" y2="382"/>
  </g>

  <g transform="translate(72 382)">
    <rect width="1456" height="104" rx="8" fill="#eaf0fb" stroke="#4b6fae" stroke-width="2"/>
    <circle cx="45" cy="52" r="24" fill="#4b6fae"/>
    <text x="45" y="52" class="num">7</text>
    <text x="88" y="43" class="band-title">调用可观测</text>
    <text x="88" y="75" class="band-desc">贯穿全链路：硬件资源 → 部署状态 → 模型服务 → 业务调用，支持监控、分析与异常联动排查</text>
  </g>

  <g transform="translate(72 506)">
    <rect width="1456" height="104" rx="8" fill="#f2f4f7" stroke="#667085" stroke-width="2"/>
    <circle cx="45" cy="52" r="24" fill="#475467"/>
    <text x="45" y="52" class="num">8</text>
    <text x="88" y="43" class="band-title">设置与访问控制</text>
    <text x="88" y="75" class="band-desc">平台治理底座：身份、组织、成员、角色、权限、操作审计与 API 流控共同约束各能力的可见与可用范围</text>
  </g>

  <text x="1528" y="650" class="desc" text-anchor="end">与“功能与能力”正文八个章节逐一对应</text>
</svg>
